<svg width="1440" height="685" viewBox="0 0 1440 685" fill="none" xmlns="http://www.w3.org/2000/svg">
<path fill-rule="evenodd" clip-rule="evenodd" d="M4.45694 98.4643L12.6226 102.264C43.1838 116.486 79.2589 100.37 89.0584 68.1176L100.5 30.4604L101.008 28.3836C110.058 -8.6179 162.25 -9.77322 172.929 26.7915C173.641 29.2311 174.601 31.5912 175.794 33.8352L200.882 81.0182C212.234 102.368 242.471 103.347 255.18 82.7756L255.967 81.5012C256.654 80.3899 257.216 79.2064 257.643 77.9719C261.952 65.5189 277.84 61.9218 287.093 71.3042L287.92 72.1436C292.604 76.8929 299.481 78.7539 305.921 77.0147L334.318 69.3452C343.778 66.7903 351.976 60.8623 357.365 52.6792L357.986 51.7377C366.48 38.8415 381.869 32.2832 397.054 35.088L407.608 37.0374C419.714 39.2733 428.5 49.8305 428.5 62.1412C428.5 72.781 435.099 82.3051 445.061 86.0427L457.61 90.751C468.448 94.8176 480.439 94.538 491.077 89.9706L566.165 57.7296C576.612 53.2437 587.863 50.9304 599.233 50.9304C619.399 50.9304 638.889 58.2012 654.127 71.409L680.167 93.9784C692.355 104.542 708.763 108.834 724.562 105.592C748.684 100.642 766 79.4116 766 54.7865V50.9304C766 34.0376 785.804 24.9134 798.644 35.8902L804.5 40.8961L853.508 72.5499C874.831 86.322 903.196 81.0581 918.158 60.5526C927.171 48.2002 941.542 40.8961 956.833 40.8961H992.657C1009.92 40.8961 1026.55 47.3882 1039.24 59.0829C1063.26 81.2058 1099.52 83.3873 1126.02 64.3032L1154.92 43.483C1166.68 35.0162 1180.79 30.4604 1195.28 30.4604C1216.56 30.4604 1236.65 40.2703 1249.74 57.0498L1266.22 78.1903C1267.07 79.2812 1268.01 80.3042 1269.02 81.2499C1283.47 94.7875 1307.12 88.3644 1312.74 69.3744L1323.05 34.5331C1328.06 17.6319 1349.16 11.9999 1361.92 24.1615L1372.91 34.6439C1380.7 42.0656 1393.58 38.5923 1396.58 28.2626C1400.03 16.3721 1415.92 14.151 1422.5 24.6386L1439 50.9304L1452.79 70.2169C1465.28 87.6927 1472 108.638 1472 130.121V309.816H1440V685H0V309.816H-16.5V111.827C-16.5 103.687 -9.90132 97.0882 -1.76144 97.0882C0.386871 97.0882 2.5092 97.5579 4.45694 98.4643Z" fill="black"/>
</svg>
