<svg width="62" height="56" viewBox="0 0 62 56" fill="none" xmlns="http://www.w3.org/2000/svg">
<path d="M31.8843 54.6962C32.5137 55.604 33.7598 55.8296 34.6675 55.2002C35.5752 54.5708 35.8008 53.3247 35.1714 52.417L31.8843 54.6962ZM2.33805 44.3843L2.1902 42.3898C1.16458 42.4658 0.363798 43.3072 0.338644 44.3354C0.31349 45.3635 1.07216 46.2431 2.09284 46.3692L2.33805 44.3843ZM21.3021 14.7607L22.8901 13.545C22.2801 12.7481 21.1739 12.5267 20.3042 13.0274C19.4344 13.5282 19.0704 14.596 19.4533 15.5237L21.3021 14.7607ZM59.1987 2.98144L61.1115 3.56543C61.4096 2.58914 60.9246 1.54506 59.9863 1.14306C59.048 0.741071 57.9576 1.11018 57.4564 1.99944L59.1987 2.98144ZM56.9494 34.9079C57.284 35.9605 58.4087 36.5426 59.4613 36.208C60.514 35.8734 61.0961 34.7488 60.7615 33.6961L56.9494 34.9079ZM2.33805 44.3843C2.48589 46.3788 2.48605 46.3788 2.48631 46.3788C2.48654 46.3788 2.4869 46.3787 2.48734 46.3787C2.48822 46.3786 2.4895 46.3785 2.49118 46.3784C2.49453 46.3782 2.49946 46.3778 2.50594 46.3773C2.51891 46.3764 2.5381 46.3749 2.56331 46.373C2.61374 46.3692 2.68826 46.3636 2.78531 46.3562C2.97942 46.3414 3.26369 46.3195 3.62561 46.291C4.3494 46.234 5.38406 46.1506 6.6295 46.0448C9.11917 45.8335 12.4566 45.5325 15.8391 45.1743C19.2141 44.817 22.6651 44.3995 25.3701 43.9533C26.7163 43.7312 27.9253 43.4945 28.8637 43.2431C29.3288 43.1185 29.7813 42.9762 30.1709 42.8092C30.4579 42.6862 31.0953 42.3988 31.5248 41.8116L28.2962 39.4503C28.5604 39.089 28.8378 39.0286 28.595 39.1327C28.4549 39.1928 28.2078 39.2777 27.8286 39.3793C27.0784 39.5803 26.0197 39.7921 24.7191 40.0066C22.1302 40.4337 18.7708 40.8415 15.4179 41.1966C12.0726 41.5508 8.76477 41.8492 6.29117 42.0592C5.05497 42.1641 4.02849 42.2469 3.31154 42.3033C2.9531 42.3316 2.6721 42.3532 2.48103 42.3678C2.3855 42.3751 2.31246 42.3806 2.26347 42.3843C2.23897 42.3861 2.22049 42.3875 2.20821 42.3884C2.20207 42.3889 2.19749 42.3892 2.19448 42.3894C2.19297 42.3896 2.19186 42.3896 2.19115 42.3897C2.19079 42.3897 2.19056 42.3897 2.19038 42.3897C2.19024 42.3898 2.1902 42.3898 2.33805 44.3843ZM31.5248 41.8116C32.0153 41.141 32.0318 40.3617 32.0317 40.0417C32.0315 39.6019 31.9718 39.1234 31.8904 38.6565C31.7255 37.7119 31.4204 36.5371 31.0404 35.257C30.276 32.6816 29.14 29.4543 27.977 26.3219C26.8109 23.181 25.6046 20.1009 24.6909 17.8083C24.2338 16.6613 23.8493 15.71 23.5789 15.0449C23.4437 14.7123 23.3369 14.4512 23.2639 14.2729C23.2273 14.1838 23.1992 14.1153 23.1802 14.069C23.1706 14.0458 23.1634 14.0282 23.1584 14.0163C23.156 14.0103 23.1541 14.0057 23.1528 14.0027C23.1522 14.0011 23.1517 13.9999 23.1514 13.9991C23.1512 13.9987 23.1511 13.9983 23.151 13.9981C23.1509 13.9979 23.1508 13.9977 21.3021 14.7607C19.4533 15.5237 19.4533 15.5237 19.4534 15.5238C19.4534 15.524 19.4535 15.5242 19.4536 15.5245C19.4539 15.5251 19.4543 15.5261 19.4549 15.5275C19.456 15.5302 19.4577 15.5344 19.46 15.54C19.4647 15.5512 19.4716 15.5681 19.4808 15.5905C19.4993 15.6354 19.5268 15.7023 19.5626 15.7898C19.6344 15.9649 19.7397 16.2225 19.8735 16.5515C20.1409 17.2093 20.5219 18.152 20.9751 19.2892C21.8821 21.5648 23.0758 24.6133 24.2271 27.7141C25.3814 30.8233 26.4801 33.9506 27.2058 36.3953C27.5709 37.6253 27.8247 38.6269 27.9499 39.3442C28.0135 39.7083 28.0316 39.9321 28.0317 40.0434C28.0318 40.2745 27.9709 39.8949 28.2962 39.4503L31.5248 41.8116ZM21.3021 14.7607C19.714 15.9764 19.7141 15.9766 19.7143 15.9768C19.7144 15.977 19.7147 15.9773 19.7149 15.9777C19.7155 15.9784 19.7163 15.9795 19.7174 15.9809C19.7195 15.9836 19.7226 15.9876 19.7266 15.9929C19.7346 16.0034 19.7464 16.0188 19.762 16.039C19.793 16.0794 19.8388 16.1389 19.8984 16.2161C20.0176 16.3707 20.1921 16.5965 20.4148 16.8829C20.8602 17.4557 21.4984 18.2715 22.2718 19.2459C23.8174 21.1931 25.9088 23.7814 28.0828 26.3332C30.2475 28.8741 32.5315 31.423 34.455 33.2676C35.4068 34.1803 36.339 34.9877 37.1672 35.5337C37.5752 35.8027 38.0493 36.0701 38.5523 36.2303C39.0149 36.3777 39.8577 36.546 40.7086 36.0984L38.8464 32.5583C39.1179 32.4156 39.3674 32.3861 39.5257 32.3877C39.6751 32.3892 39.7625 32.4178 39.7664 32.419C39.7742 32.4215 39.7425 32.4118 39.6662 32.3722C39.5921 32.3338 39.4935 32.2763 39.369 32.1943C38.8461 31.8495 38.1207 31.2408 37.2236 30.3805C35.4493 28.679 33.2702 26.2541 31.1276 23.7392C28.9943 21.2351 26.9341 18.6857 25.4049 16.7591C24.641 15.7967 24.011 14.9915 23.5726 14.4276C23.3534 14.1457 23.1821 13.9242 23.066 13.7736C23.0079 13.6982 22.9636 13.6407 22.934 13.6021C22.9192 13.5829 22.9081 13.5684 22.9007 13.5588C22.897 13.554 22.8943 13.5504 22.8926 13.5481C22.8917 13.547 22.891 13.5461 22.8906 13.5456C22.8904 13.5453 22.8903 13.5452 22.8902 13.545C22.8901 13.545 22.8901 13.545 21.3021 14.7607ZM40.7086 36.0984C41.2159 35.8316 41.637 35.3847 41.8978 35.0928C42.2162 34.7364 42.5666 34.2923 42.9346 33.7956C43.6737 32.798 44.5663 31.4757 45.5436 29.9623C47.5024 26.9292 49.8678 23.0255 52.1436 19.1824C54.4219 15.3351 56.621 11.5309 58.2497 8.68973C59.0643 7.26882 59.7367 6.08799 60.2056 5.2621C60.4401 4.84913 60.6237 4.52487 60.7488 4.30365C60.8114 4.19304 60.8593 4.10819 60.8917 4.05089C60.9079 4.02225 60.9201 4.00049 60.9284 3.98584C60.9325 3.97851 60.9357 3.97297 60.9378 3.96923C60.9388 3.96736 60.9396 3.96594 60.9402 3.96497C60.9404 3.96449 60.9407 3.96411 60.9408 3.96387C60.9409 3.9636 60.941 3.96345 59.1987 2.98144C57.4564 1.99944 57.4564 1.99951 57.4562 1.99971C57.4561 1.99992 57.4559 2.00023 57.4557 2.00066C57.4552 2.00152 57.4545 2.00284 57.4535 2.00461C57.4515 2.00814 57.4485 2.01348 57.4445 2.0206C57.4364 2.03483 57.4244 2.05617 57.4085 2.0844C57.3766 2.14084 57.3292 2.22481 57.2671 2.33451C57.143 2.55391 56.9605 2.87623 56.7272 3.28712C56.2606 4.10894 55.591 5.28491 54.7795 6.70034C53.1562 9.53191 50.9673 13.3186 48.7018 17.1442C46.4339 20.9739 44.0998 24.825 42.1834 27.7923C41.2232 29.2792 40.3843 30.5185 39.7206 31.4144C39.3872 31.8645 39.1183 32.2001 38.9149 32.4277C38.6539 32.7199 38.6507 32.6613 38.8464 32.5583L40.7086 36.0984ZM57.2859 2.39746C53.678 14.2149 53.4392 23.8649 56.9494 34.9079L60.7615 33.6961C57.5289 23.5265 57.7082 14.7132 61.1115 3.56543L57.2859 2.39746ZM33.5279 53.5566C35.1714 52.417 35.1705 52.4157 35.1696 52.4144C35.1693 52.414 35.1684 52.4127 35.1678 52.4118C35.1665 52.41 35.1653 52.4082 35.164 52.4063C35.1613 52.4026 35.1586 52.3987 35.1557 52.3947C35.15 52.3866 35.1437 52.3779 35.1369 52.3686C35.1233 52.35 35.1075 52.3289 35.0895 52.3055C35.0536 52.2588 35.0086 52.2027 34.9536 52.1382C34.8435 52.009 34.6937 51.8461 34.4961 51.6554C34.1007 51.2737 33.5162 50.7829 32.679 50.2287C31.0055 49.1207 28.3261 47.7614 24.1269 46.5068L22.9818 50.3393C26.8726 51.5019 29.18 52.7094 30.4708 53.5639C31.1157 53.9909 31.5077 54.3303 31.7183 54.5335C31.8236 54.6352 31.8842 54.7034 31.9087 54.7322C31.921 54.7467 31.9244 54.7513 31.92 54.7455C31.9177 54.7427 31.9136 54.7372 31.9076 54.729C31.9046 54.7249 31.9011 54.7201 31.8972 54.7146C31.8953 54.7119 31.8933 54.709 31.8911 54.706C31.89 54.7044 31.8889 54.7029 31.8878 54.7012C31.8872 54.7004 31.8864 54.6992 31.8861 54.6988C31.8852 54.6975 31.8843 54.6962 33.5279 53.5566ZM24.1269 46.5068C19.9541 45.26 14.5459 44.2339 10.2377 43.5238C8.07176 43.1668 6.16164 42.8862 4.79246 42.6947C4.10761 42.5989 3.55744 42.5254 3.1775 42.4756C2.98751 42.4507 2.84004 42.4318 2.73953 42.419C2.68928 42.4127 2.65075 42.4078 2.62452 42.4045C2.61141 42.4029 2.60136 42.4016 2.59446 42.4008C2.59101 42.4003 2.58835 42.4 2.58647 42.3998C2.58554 42.3997 2.5848 42.3996 2.58426 42.3995C2.58399 42.3995 2.58374 42.3994 2.58361 42.3994C2.5834 42.3994 2.58325 42.3994 2.33805 44.3843C2.09284 46.3692 2.09279 46.3692 2.09278 46.3692C2.09285 46.3692 2.0929 46.3692 2.09303 46.3692C2.09329 46.3693 2.09375 46.3693 2.09441 46.3694C2.09572 46.3696 2.09783 46.3698 2.10072 46.3702C2.1065 46.3709 2.1154 46.372 2.12737 46.3735C2.15131 46.3765 2.18748 46.3811 2.23534 46.3871C2.33106 46.3993 2.4735 46.4176 2.65823 46.4418C3.02774 46.4901 3.56626 46.5621 4.23841 46.6561C5.58322 46.8442 7.4603 47.12 9.58719 47.4706C13.8646 48.1756 19.0646 49.1689 22.9818 50.3393L24.1269 46.5068Z" fill="black"/>
</svg>
