<svg width="85" height="68" viewBox="0 0 85 68" fill="none" xmlns="http://www.w3.org/2000/svg">
<path d="M78.0727 29.5593C78.4866 28.1017 78.7132 26.5664 78.7132 24.9826C78.7132 20.2989 76.8114 16.0332 73.737 12.9528C70.6625 9.87253 66.3958 7.94856 61.6856 7.95827C59.705 7.95827 57.8032 8.30809 56.0393 8.92998C52.4131 3.55644 46.2642 0 39.2679 0C33.9172 0 29.0395 2.08917 25.433 5.47071C22.3389 8.37611 20.171 12.2435 19.3728 16.5967C18.5747 16.4801 17.7666 16.4121 16.9291 16.4121C12.2484 16.4121 7.99154 18.3167 4.93682 21.3873C1.89195 24.4384 0 28.6848 0 33.349C0 39.2569 3.03501 44.475 7.6368 47.5067C7.62694 47.7302 7.60723 47.9537 7.60723 48.1869C7.60723 51.8697 8.72073 55.3581 10.8689 58.0109C11.943 59.3324 13.293 60.4401 14.8597 61.2078C16.4364 61.9754 18.2298 62.403 20.1611 62.403C20.8903 62.403 21.5998 62.2961 22.2994 62.16C23.1272 61.9851 23.9253 61.7616 24.6053 61.5479C24.9206 62.1115 25.3345 62.7722 25.8469 63.4524C26.5563 64.3853 27.4728 65.357 28.6552 66.1829C29.8279 66.9991 31.2961 67.6502 32.991 67.864C33.73 67.9514 34.4493 68 35.1391 68C39.0708 68 42.165 66.6396 44.2343 65.2987C45.0719 64.7545 45.7518 64.2201 46.2642 63.7536C46.6682 63.9771 47.1412 64.2103 47.693 64.4533C49.4667 65.2306 51.9795 66.008 54.9751 66.008C55.6747 66.008 56.4039 65.9691 57.1429 65.872C60.7593 65.4055 64.4447 63.8605 67.3418 61.2952C68.7903 60.0126 70.0319 58.4578 70.9187 56.6602C71.51 55.465 71.9238 54.1532 72.1603 52.7539C72.3673 52.7636 72.5643 52.7928 72.7713 52.7928C76.1512 52.7928 79.2256 51.413 81.4329 49.1975C83.6402 46.9917 85 43.9308 85 40.5687C85 35.7199 82.1818 31.5319 78.0727 29.5593ZM78.6245 46.467C77.1169 47.9731 75.0574 48.8963 72.7811 48.8963C72.1406 48.8963 71.51 48.8185 70.8793 48.663L68.4848 48.0995L68.4454 50.5287C68.4158 52.1806 68.0414 53.6382 67.391 54.95C66.4253 56.9031 64.829 58.5356 62.9174 59.7502C61.0057 60.9648 58.7688 61.7422 56.6503 62.0143C56.0787 62.092 55.5269 62.1212 54.9849 62.1212C52.689 62.1212 50.6985 61.5187 49.2992 60.8968C48.5996 60.5956 48.0478 60.2846 47.6733 60.0612C47.4861 59.9543 47.358 59.8571 47.2693 59.7988L47.1806 59.7405L47.1708 59.7308L45.6533 58.5939L44.4609 60.0514C44.4314 60.0806 43.5347 61.13 41.9285 62.1309C40.3223 63.1318 38.046 64.0937 35.149 64.0937C34.6169 64.0937 34.065 64.0646 33.4935 63.9869C32.518 63.8702 31.6902 63.501 30.9413 62.986C29.818 62.2183 28.9114 61.062 28.3301 60.0903C28.0344 59.6045 27.8176 59.1769 27.6797 58.8757C27.6107 58.7299 27.5614 58.6133 27.5319 58.5356L27.5023 58.4578V58.4481L26.8125 56.563L24.9206 57.3112L24.891 57.3209C24.7334 57.3792 23.9155 57.6902 22.94 57.9817C22.4473 58.1275 21.925 58.2635 21.4323 58.351C20.9396 58.4481 20.4863 58.4967 20.1907 58.4967C18.8309 58.4967 17.6681 58.2052 16.6334 57.7096C15.0962 56.9614 13.8448 55.6982 12.9579 54.0463C12.0711 52.3944 11.5685 50.3538 11.5685 48.1772C11.5685 47.7205 11.6079 47.2444 11.6868 46.7488L11.874 45.437L10.7014 44.7859C6.69082 42.5607 3.96128 38.2852 3.96128 33.3392C3.96128 29.7148 5.41966 26.4596 7.78461 24.0886C10.1495 21.7274 13.3816 20.2795 16.9685 20.2698C18.2002 20.2698 19.3925 20.4544 20.5356 20.7848L22.8808 21.4553L23.0483 19.0552C23.3538 14.7991 25.2655 10.9997 28.1822 8.2595C31.099 5.51929 34.9913 3.85767 39.2975 3.85767C45.4168 3.85767 50.7477 7.23921 53.5463 12.2726L54.443 13.8954L56.128 13.0889C57.8327 12.2726 59.7148 11.8159 61.7152 11.8159C65.3217 11.8159 68.5834 13.2735 70.9581 15.6542C73.3329 18.0349 74.8012 21.3095 74.8012 24.9631C74.8012 26.7316 74.4464 28.4127 73.8158 29.948L72.9979 31.94L75.087 32.5424C78.526 33.5336 81.088 36.7305 81.0781 40.5493C81.0584 42.8814 80.1322 44.9608 78.6245 46.467Z" fill="black"/>
<path d="M25.0005 44.12C24.3925 44.12 23.9605 43.8 23.7045 43.16C23.4645 42.52 23.3445 41.496 23.3445 40.088C23.3445 38.008 23.6405 36.032 24.2325 34.16C24.3765 33.696 24.6085 33.36 24.9285 33.152C25.2645 32.928 25.7285 32.816 26.3205 32.816C26.6405 32.816 26.8645 32.856 26.9925 32.936C27.1205 33.016 27.1845 33.168 27.1845 33.392C27.1845 33.648 27.0645 34.224 26.8245 35.12C26.6645 35.76 26.5365 36.32 26.4405 36.8C26.3445 37.264 26.2645 37.848 26.2005 38.552C26.6325 37.304 27.1445 36.248 27.7365 35.384C28.3445 34.52 28.9605 33.88 29.5845 33.464C30.2245 33.032 30.8245 32.816 31.3845 32.816C31.9445 32.816 32.3365 32.944 32.5605 33.2C32.8005 33.456 32.9205 33.848 32.9205 34.376C32.9205 34.888 32.7685 35.816 32.4645 37.16C32.3365 37.736 32.2485 38.168 32.2005 38.456C33.0005 36.488 33.8885 35.056 34.8645 34.16C35.8405 33.264 36.7525 32.816 37.6005 32.816C38.6405 32.816 39.1605 33.336 39.1605 34.376C39.1605 35 38.9845 36.128 38.6325 37.76C38.3285 39.152 38.1765 40.072 38.1765 40.52C38.1765 41.16 38.4085 41.48 38.8725 41.48C39.1925 41.48 39.5685 41.288 40.0005 40.904C40.4485 40.504 41.0405 39.864 41.7765 38.984C41.9685 38.76 42.1845 38.648 42.4245 38.648C42.6325 38.648 42.7925 38.744 42.9045 38.936C43.0325 39.128 43.0965 39.392 43.0965 39.728C43.0965 40.368 42.9445 40.864 42.6405 41.216C41.9525 42.064 41.2085 42.76 40.4085 43.304C39.6245 43.848 38.7285 44.12 37.7205 44.12C36.9045 44.12 36.2885 43.888 35.8725 43.424C35.4565 42.944 35.2485 42.256 35.2485 41.36C35.2485 40.912 35.3605 40.112 35.5845 38.96C35.7925 37.952 35.8965 37.256 35.8965 36.872C35.8965 36.616 35.8085 36.488 35.6325 36.488C35.4245 36.488 35.1285 36.76 34.7445 37.304C34.3605 37.832 33.9765 38.536 33.5925 39.416C33.2085 40.296 32.8965 41.224 32.6565 42.2C32.4805 42.968 32.2725 43.48 32.0325 43.736C31.8085 43.992 31.4405 44.12 30.9285 44.12C30.4005 44.12 30.0005 43.872 29.7285 43.376C29.4725 42.864 29.3445 42.248 29.3445 41.528C29.3445 40.92 29.4245 40.04 29.5845 38.888C29.7125 37.864 29.7765 37.192 29.7765 36.872C29.7765 36.616 29.6885 36.488 29.5125 36.488C29.2725 36.488 28.9685 36.776 28.6005 37.352C28.2325 37.928 27.8725 38.664 27.5205 39.56C27.1845 40.456 26.9125 41.336 26.7045 42.2C26.5285 42.952 26.3205 43.464 26.0805 43.736C25.8565 43.992 25.4965 44.12 25.0005 44.12Z" fill="black"/>
<path d="M43.6039 44.12C42.8839 44.12 42.2919 43.792 41.8279 43.136C41.3799 42.464 41.1559 41.632 41.1559 40.64C41.1559 39.44 41.2359 38.344 41.3959 37.352C41.5559 36.344 41.8199 35.28 42.1879 34.16C42.3479 33.68 42.5719 33.336 42.8599 33.128C43.1479 32.92 43.6039 32.816 44.2279 32.816C44.5799 32.816 44.8199 32.872 44.9479 32.984C45.0919 33.096 45.1639 33.264 45.1639 33.488C45.1639 33.616 45.0759 34.048 44.8999 34.784C44.7399 35.376 44.6119 35.912 44.5159 36.392C44.1959 38.072 44.0359 39.192 44.0359 39.752C44.0359 40.088 44.0759 40.328 44.1559 40.472C44.2359 40.6 44.3639 40.664 44.5399 40.664C44.7799 40.664 45.0759 40.424 45.4279 39.944C45.7959 39.464 46.1799 38.736 46.5799 37.76C46.9959 36.784 47.3959 35.584 47.7799 34.16C47.9079 33.68 48.0999 33.336 48.3559 33.128C48.6279 32.92 49.0279 32.816 49.5559 32.816C49.9239 32.816 50.1799 32.864 50.3239 32.96C50.4679 33.04 50.5399 33.2 50.5399 33.44C50.5399 33.84 50.3399 34.936 49.9399 36.728C49.4919 38.776 49.2679 40.04 49.2679 40.52C49.2679 40.824 49.3319 41.064 49.4599 41.24C49.5879 41.4 49.7559 41.48 49.9639 41.48C50.2839 41.48 50.6599 41.288 51.0919 40.904C51.5399 40.504 52.1319 39.864 52.8679 38.984C53.0599 38.76 53.2759 38.648 53.5159 38.648C53.7239 38.648 53.8839 38.744 53.9959 38.936C54.1239 39.128 54.1879 39.392 54.1879 39.728C54.1879 40.368 54.0359 40.864 53.7319 41.216C53.0439 42.064 52.2999 42.76 51.4999 43.304C50.7159 43.848 49.8199 44.12 48.8119 44.12C48.0439 44.12 47.4759 43.824 47.1079 43.232C46.7559 42.64 46.5799 41.808 46.5799 40.736C46.3079 41.824 45.8999 42.664 45.3559 43.256C44.8119 43.832 44.2279 44.12 43.6039 44.12Z" fill="black"/>
<path d="M60.7378 32.816C61.2498 32.816 61.6338 32.952 61.8898 33.224C62.1618 33.48 62.2978 33.864 62.2978 34.376C62.2978 34.792 62.2098 35.576 62.0338 36.728C61.8738 37.704 61.7458 38.632 61.6498 39.512C61.5538 40.376 61.5058 41.344 61.5058 42.416C61.5058 43.024 61.3778 43.464 61.1218 43.736C60.8818 43.992 60.4818 44.12 59.9218 44.12C59.3938 44.12 59.0098 43.984 58.7698 43.712C58.5298 43.44 58.4098 43.032 58.4098 42.488C58.4098 41.848 58.5218 40.792 58.7458 39.32C58.9378 38.04 59.0338 37.224 59.0338 36.872C59.0338 36.616 58.9458 36.488 58.7698 36.488C58.5618 36.488 58.2658 36.76 57.8818 37.304C57.4978 37.832 57.1138 38.536 56.7298 39.416C56.3458 40.296 56.0338 41.224 55.7938 42.2C55.6178 42.952 55.4098 43.464 55.1698 43.736C54.9458 43.992 54.5858 44.12 54.0898 44.12C53.5938 44.12 53.2258 43.944 52.9858 43.592C52.7618 43.224 52.6098 42.664 52.5298 41.912C52.4498 41.16 52.4098 40.056 52.4098 38.6C52.4098 36.136 52.6578 33.568 53.1538 30.896C53.6658 28.224 54.4098 25.984 55.3858 24.176C56.3778 22.352 57.5618 21.44 58.9378 21.44C59.6738 21.44 60.2658 21.76 60.7138 22.4C61.1778 23.024 61.4098 23.84 61.4098 24.848C61.4098 26.464 60.9378 28.144 59.9938 29.888C59.0498 31.616 57.5138 33.64 55.3858 35.96C55.3378 36.792 55.3138 37.648 55.3138 38.528C55.8418 37.168 56.4258 36.064 57.0658 35.216C57.7218 34.352 58.3618 33.736 58.9858 33.368C59.6258 33 60.2098 32.816 60.7378 32.816ZM58.4338 23.816C58.1458 23.816 57.8258 24.232 57.4738 25.064C57.1218 25.88 56.7778 26.992 56.4418 28.4C56.1218 29.792 55.8578 31.312 55.6498 32.96C56.6418 31.792 57.4578 30.52 58.0978 29.144C58.7538 27.768 59.0818 26.52 59.0818 25.4C59.0818 24.888 59.0258 24.496 58.9138 24.224C58.8018 23.952 58.6418 23.816 58.4338 23.816Z" fill="black"/>
</svg>
