<svg width="150" height="129" viewBox="0 0 150 129" fill="none" xmlns="http://www.w3.org/2000/svg">
<path fill-rule="evenodd" clip-rule="evenodd" d="M12.5184 76.8072C7.72078 67.7694 10.8823 55.5758 16.2467 46.8664C21.3392 38.5986 32.379 36.9698 40.4128 31.5198C46.7621 27.2126 51.2935 20.3331 58.6363 18.1102C66.0746 15.8583 73.8479 20.2107 81.5356 19.0704C95.8732 16.9438 110.465 1.22645 122.968 8.56846C133.992 15.0424 125.972 33.3116 127.426 46.0179C128.65 56.7261 135.149 67.7274 130.865 77.6144C126.588 87.485 114.224 90.3605 105.491 96.6366C98.2153 101.866 92.0071 108.255 83.6692 111.534C74.6586 115.078 64.3263 120.313 55.516 116.291C46.5202 112.184 47.2756 98.2844 39.9903 91.5945C32.1962 84.4375 17.4807 86.1551 12.5184 76.8072Z" fill="black"/>
<g clip-path="url(#clip0_242_223)">
<path d="M57.3336 50.6667C57.3336 50.6667 52.0002 53.3334 52.0002 65.3334C52.0002 65.3334 60.0002 64 61.3336 61.3334C61.3336 61.3334 64.0002 45 57.3336 50.6667ZM94.6602 50.724C94.6602 50.724 99.9936 53.3907 99.9936 65.3907C99.9936 65.3907 91.9936 64.0587 90.6602 61.392C90.6602 61.392 87.9936 45.0574 94.6602 50.724Z" fill="#99AAB5"/>
<path d="M53.3335 41.3334C51.9868 42.6534 54.6668 52 60.0002 53.3334C65.3335 54.6667 65.3335 46.6667 64.0002 46.6667C58.6668 46.6667 56.0562 38.6667 53.3335 41.3334ZM99.0628 41.3334C100.411 42.6534 97.7295 52 92.3962 53.3334C87.0628 54.6667 87.0628 46.6667 88.3962 46.6667C93.7295 46.6667 96.3415 38.6667 99.0628 41.3334Z" fill="#FFE8B6"/>
<path d="M81.3015 81.3334H70.7002C63.3175 81.3334 57.3335 75.3493 57.3335 67.968V56.0334C57.3335 48.6507 63.3175 42.6667 70.7002 42.6667H81.3015C88.6828 42.6667 94.6668 48.6507 94.6668 56.0334V67.968C94.6668 75.3493 88.6828 81.3334 81.3015 81.3334Z" fill="#CCD6DD"/>
<path d="M98.6668 77.3334C98.6668 84.696 92.6962 88 85.3335 88H66.6668C59.3028 88 53.3335 84.696 53.3335 77.3334C53.3335 69.9707 59.3028 64 66.6668 64H85.3335C92.6962 64 98.6668 69.9707 98.6668 77.3334Z" fill="#E6AAAA"/>
<path d="M64.667 78.6667C65.7716 78.6667 66.667 76.8758 66.667 74.6667C66.667 72.4575 65.7716 70.6667 64.667 70.6667C63.5624 70.6667 62.667 72.4575 62.667 74.6667C62.667 76.8758 63.5624 78.6667 64.667 78.6667Z" fill="#C1694F"/>
<path d="M87.3335 78.6667C88.4381 78.6667 89.3335 76.8758 89.3335 74.6667C89.3335 72.4575 88.4381 70.6667 87.3335 70.6667C86.2289 70.6667 85.3335 72.4575 85.3335 74.6667C85.3335 76.8758 86.2289 78.6667 87.3335 78.6667Z" fill="#C1694F"/>
<path d="M66.667 56C66.667 56 66.667 53.3334 69.3337 53.3334C72.0003 53.3334 72.0003 56 72.0003 56V58.6667C72.0003 58.6667 72.0003 61.3334 69.3337 61.3334C66.667 61.3334 66.667 58.6667 66.667 58.6667V56ZM80.0003 56C80.0003 56 80.0003 53.3334 82.667 53.3334C85.3337 53.3334 85.3337 56 85.3337 56V58.6667C85.3337 58.6667 85.3337 61.3334 82.667 61.3334C80.0003 61.3334 80.0003 58.6667 80.0003 58.6667V56Z" fill="#272B2B"/>
</g>
<defs>
<clipPath id="clip0_242_223">
<rect width="48" height="48" fill="white" transform="translate(52.0002 40)"/>
</clipPath>
</defs>
</svg>
